# xmcd
#
# Track frame offsets:
#	150
#	16620
#	30477
#	43327
#	55972
#	69925
#	82022
#	97622
#	112910
#	125730
#
# Disc length: 1871 seconds
#
# Revision: 4
# Processed by: cddbd v1.5.2PL0 Copyright (c) Steve Scherf et al.
# Submitted via: audiograbber 1.83.01
#
DISCID=74074d0a
DTITLE=Mark Chesnutt - Too Cold At Home
DYEAR=1990
DGENRE=Oldies
TTITLE0=Too Cold At Home
TTITLE1=Brother Jukebox
TTITLE2=Blame It On Texas
TTITLE3=Your Love Is A Miracle
TTITLE4=Broken Promise Land
TTITLE5=Too Good A Memory
TTITLE6=Friends In Low Places
TTITLE7=Lucky Man
TTITLE8=Hey You There In The Mirror
TTITLE9=Danger At My Door
EXTD=
EXTT0=
EXTT1=
EXTT2=
EXTT3=
EXTT4=
EXTT5=
EXTT6=
EXTT7=
EXTT8=
EXTT9=
PLAYORDER=
